# xmcd CD database file
#
# Track frame offsets:
#	150
#	23113
#	50666
#	78642
#	105967
#	129944
#	153082
#	178052
#	191973
#	218474
#	251976
#
# Disc length: 3586 seconds
#
# Revision: 0
# Processed by: cddbd v1.5.2PL0 Copyright (c) Steve Scherf et al.
# Submitted via: CDex 1.70beta2
#
DISCID=8f0e000b
DTITLE=Chuck Loeb - Unspoken
DYEAR=2016
DGENRE=Jazz
TTITLE0=Cotton Club (featuring Jeff Lorber)
TTITLE1=Natural Light (featuring Andy Snitzer)
TTITLE2=Unspoken (featuring Brian Culbertson)
TTITLE3=Happy Hour (featuring Mitchel Forman)
TTITLE4=Affinity (featuring Everette Harp)
TTITLE5=Treetops (featuring Jeff Lorber and Eric Marienthal)
TTITLE6=Si Se Puede (featuring Till Brönner)
TTITLE7=Way Up High (featuring Carmen Cuesta)
TTITLE8=Cut and Run (featuring David Mann)
TTITLE9=Voramar (featuring Eric Marienthal and Pat Bianchi)
TTITLE10=Via Verde (featuring Christina Loeb)
EXTD=YEAR: 2016
EXTT0=
EXTT1=
EXTT2=
EXTT3=
EXTT4=
EXTT5=
EXTT6=
EXTT7=
EXTT8=
EXTT9=
EXTT10=
PLAYORDER=
